<svg id="Calque_1" data-name="Calque 1" xmlns="http://www.w3.org/2000/svg" viewBox="0 0 374.4 88.32"><defs><style>.cls-1{fill:#fdfdfd;}.cls-2{fill:#020202;}.cls-3{fill:#030303;}.cls-4{fill:#f93;}.cls-5{fill:#040404;}</style></defs><path class="cls-1" d="M279.09,704.56c0-20.82,0-41.65,0-62.47,0-1.64.32-2,2-2q112.14.09,224.27,0c-.14.34-.43.4-.76.45a41.76,41.76,0,0,0-23.79,11.73,39.77,39.77,0,0,0-10.63,17c-1.05,3.32,0,4.66,3.41,4.62a35.82,35.82,0,0,1,5.48,0c3.44.49,5.57-.83,7.09-3.87a26.49,26.49,0,0,1,13.29-12.52c2.4-1.07,2.48-1,2.48,1.5v42.42c0,7.95,1,9,8.9,8.88,5.19-.05,6.45-1.32,6.44-6.53,0-15.25-.06-30.5-.16-45.75,0-1.72.31-2.25,2.09-1.64,6.09,2.1,11.17,5.28,13.87,11.49a9.5,9.5,0,0,0,8.2,6.11c1.5.13,3,0,4.54,0,4.16,0,5.3-1.39,3.95-5.25-5-14.1-14.41-23.49-29.15-27.29-1.73-.45-3.59-.34-5.19-1.29q68.05,0,136.1,0c1.64,0,2,.32,2,2q-.09,42.21,0,84.41c0,1.63-.32,2-2,2q-185.22-.08-370.43,0c-1.64,0-2.23-.31-1.94-2a14.53,14.53,0,0,0,0-2.38c.78-.19,1.38.33,2,.56,11.38,4.09,24.41-1.14,29.45-12.06,3.52-7.62,2.56-15.12-1.28-22.39-1.18-2.25-2.71-4.31-3.54-6.73a5.63,5.63,0,0,1,1-6,5.22,5.22,0,0,1,5.65-1.58c.51.14,1.05.22,1.69.35,0-6,0-11.85,0-17.73,0-1.09-.4-1.46-1.43-1.75a23.45,23.45,0,0,0-10.19-.66c-13.57,2.18-22,15.24-18.85,28.94,1.12,4.87,3.7,9.06,5.82,13.48,1.84,3.86-.17,7.12-4.47,7.63C282.76,706.44,281,705.21,279.09,704.56Zm335.85,6.76c0-3.81,0-7.62,0-11.44-.19-14.14-8.86-23.41-22.95-24.6-15.29-1.29-27.7,9.37-28.31,24.33-.65,15.74,12.07,27.77,27.87,26.38,1.48-.13,2.25-.47,2.21-2.24-.14-5.16-.07-10.32,0-15.48,0-1.16-.2-1.72-1.45-1a5.28,5.28,0,0,1-1.36.44,6.64,6.64,0,0,1-8.18-4.72,7.15,7.15,0,0,1,4.73-8.7,6.65,6.65,0,0,1,8.39,4.35,13,13,0,0,1,.57,4.46c0,6.75,0,13.5,0,20.25,0,1.31.27,1.79,1.69,1.77,5.1-.09,10.21-.08,15.32,0,1.29,0,1.6-.41,1.58-1.63C614.9,719.42,614.94,715.37,614.94,711.32ZM350.1,706.14c-1.05.32-1.92.67-2.82.86a6.62,6.62,0,0,1-7.33-2.71,7.22,7.22,0,0,1,.3-8,7.1,7.1,0,0,1,7.64-2.63c2.94.81,4.89,3.89,4.91,7.92,0,7,.05,14,0,21,0,1.44.33,1.92,1.84,1.89,4.95-.1,9.9-.12,14.84,0,1.72.05,1.93-.66,1.91-2.09-.05-7.22,0-14.45,0-21.68-.05-5.79-1-11.37-4.46-16.25-5.66-8-16.92-11.78-27.57-9.13-13.49,3.35-21.53,16.61-18.74,30.41a25.17,25.17,0,0,0,27.88,19.56c.82-.1,1.71.06,1.69-1.35C350.05,718,350.1,712.13,350.1,706.14Zm75.63,3.26c0-2.39,0-4.77,0-7.15,0-4.62,0-9.21-1.46-13.67-3.06-9.47-12.53-15.19-23.18-14-9.81,1.12-18.2,9.42-18.94,19.16s-.12,19.38-.31,29.07c0,1.34.55,1.56,1.71,1.55,4.95,0,9.9-.08,14.85,0,1.59,0,2-.45,2-2-.08-8.1,0-16.21,0-24.32a8.52,8.52,0,0,1,.44-3.51,3.35,3.35,0,0,1,5.39-1,4.42,4.42,0,0,1,.95,3.33c0,8.51,0,17,0,25.51,0,1.33.14,2,1.77,2,5.11-.1,10.22-.08,15.33,0,1.32,0,1.58-.44,1.57-1.64C425.7,718.3,425.73,713.85,425.73,709.4Zm83.39,18.06a40.88,40.88,0,0,0,16.41-2.86c12.78-5.2,21.09-14.45,25-27.63.91-3.09,0-4.26-3.32-4.27-2.24,0-4.47,0-6.71-.05a4.91,4.91,0,0,0-4.84,2.84c-.4.77-.75,1.57-1.16,2.35-7.73,14.73-25.89,19.49-39.39,9.86-9.14-6.52-14-15.39-12-27.09.62-3.48-1.4-5.53-5.34-5.52-1.83,0-3.66.28-5.48.31-3,.05-4.06,1.07-4.41,4.11a43.06,43.06,0,0,0,.51,12.31C472,712.43,489.56,727.46,509.12,727.46Zm143.36-31.34c0-6.14,0-12.09,0-18,0-1.09-.35-1.48-1.46-1.65-14.14-2.16-25.18,6.73-25.45,20.77-.17,9,0,18.1-.06,27.15,0,1.33.33,1.73,1.7,1.71,4.86-.08,9.73-.12,14.59,0,1.8,0,2.27-.41,2.24-2.21q-.16-10.71,0-21.43C644.11,696.24,646.48,694.44,652.48,696.12Zm-197.75,4c0-7.62,0-15.24,0-22.86,0-1.27-.24-1.8-1.68-1.78q-7.65.14-15.31,0c-1.38,0-1.52.52-1.52,1.65q0,22.74,0,45.49c0,1.5.43,1.86,1.88,1.83,4.78-.09,9.58-.15,14.36,0,2,.07,2.32-.68,2.3-2.44C454.68,714.68,454.73,707.38,454.73,700.07Zm-9.12-28.65c5.38,0,9.31-3.77,9.27-8.8a9.31,9.31,0,0,0-18.61.1C436.29,667.78,440.24,671.46,445.61,671.42Z" transform="translate(-279 -640.13)"/><path class="cls-2" d="M279.09,704.56c1.93.65,3.67,1.88,5.89,1.61,4.3-.51,6.31-3.77,4.47-7.63-2.12-4.42-4.7-8.61-5.82-13.48-3.14-13.7,5.28-26.76,18.85-28.94a23.45,23.45,0,0,1,10.19.66c1,.29,1.44.66,1.43,1.75-.05,5.88,0,11.75,0,17.73-.64-.13-1.18-.21-1.69-.35a5.22,5.22,0,0,0-5.65,1.58,5.63,5.63,0,0,0-1,6c.83,2.42,2.36,4.48,3.54,6.73,3.84,7.27,4.8,14.77,1.28,22.39-5,10.92-18.07,16.15-29.45,12.06-.65-.23-1.25-.75-2-.56Z" transform="translate(-279 -640.13)"/><path class="cls-3" d="M614.94,711.32c0,4,0,8.1,0,12.15,0,1.22-.29,1.65-1.58,1.63-5.11-.07-10.22-.08-15.32,0-1.42,0-1.71-.46-1.69-1.77.06-6.75,0-13.5,0-20.25a13,13,0,0,0-.57-4.46,6.65,6.65,0,0,0-8.39-4.35,7.15,7.15,0,0,0-4.73,8.7,6.64,6.64,0,0,0,8.18,4.72,5.28,5.28,0,0,0,1.36-.44c1.25-.71,1.46-.15,1.45,1,0,5.16-.1,10.32,0,15.48,0,1.77-.73,2.11-2.21,2.24-15.8,1.39-28.52-10.64-27.87-26.38.61-15,13-25.62,28.31-24.33,14.09,1.19,22.76,10.46,22.95,24.6C615,703.7,614.94,707.51,614.94,711.32Z" transform="translate(-279 -640.13)"/><path class="cls-3" d="M350.1,706.14c0,6-.05,11.86,0,17.73,0,1.41-.87,1.25-1.69,1.35a25.17,25.17,0,0,1-27.88-19.56c-2.79-13.8,5.25-27.06,18.74-30.41,10.65-2.65,21.91,1.08,27.57,9.13,3.44,4.88,4.41,10.46,4.46,16.25.06,7.23,0,14.46,0,21.68,0,1.43-.19,2.14-1.91,2.09-4.94-.12-9.89-.1-14.84,0-1.51,0-1.86-.45-1.84-1.89.07-7,.05-14,0-21,0-4-2-7.11-4.91-7.92a7.1,7.1,0,0,0-7.64,2.63,7.22,7.22,0,0,0-.3,8,6.62,6.62,0,0,0,7.33,2.71C348.18,706.81,349.05,706.46,350.1,706.14Z" transform="translate(-279 -640.13)"/><path class="cls-3" d="M425.73,709.4c0,4.45,0,8.9,0,13.35,0,1.2-.25,1.66-1.57,1.64-5.11-.07-10.22-.09-15.33,0-1.63,0-1.78-.65-1.77-2,.05-8.5,0-17,0-25.51a4.42,4.42,0,0,0-.95-3.33,3.35,3.35,0,0,0-5.39,1,8.52,8.52,0,0,0-.44,3.51c0,8.11,0,16.22,0,24.32,0,1.54-.37,2-2,2-5-.1-9.9-.06-14.85,0-1.16,0-1.73-.21-1.71-1.55.19-9.69-.43-19.39.31-29.07s9.13-18,18.94-19.16c10.65-1.21,20.12,4.51,23.18,14,1.43,4.46,1.5,9,1.46,13.67C425.71,704.63,425.73,707,425.73,709.4Z" transform="translate(-279 -640.13)"/><path class="cls-4" d="M515.34,640.18c1.6,1,3.46.84,5.19,1.29,14.74,3.8,24.19,13.19,29.15,27.29,1.35,3.86.21,5.24-3.95,5.25-1.52,0-3,.16-4.54,0a9.5,9.5,0,0,1-8.2-6.11c-2.7-6.21-7.78-9.39-13.87-11.49-1.78-.61-2.1-.08-2.09,1.64.1,15.25.12,30.5.16,45.75,0,5.21-1.25,6.48-6.44,6.53-7.88.09-8.9-.93-8.9-8.88V659.06c0-2.55-.08-2.57-2.48-1.5a26.49,26.49,0,0,0-13.29,12.52c-1.52,3-3.65,4.36-7.09,3.87a35.82,35.82,0,0,0-5.48,0c-3.44,0-4.46-1.3-3.41-4.62a39.77,39.77,0,0,1,10.63-17,41.76,41.76,0,0,1,23.79-11.73c.33,0,.62-.11.76-.45Z" transform="translate(-279 -640.13)"/><path class="cls-4" d="M509.12,727.46c-19.56,0-37.16-15-40.74-35.64a43.06,43.06,0,0,1-.51-12.31c.35-3,1.43-4.06,4.41-4.11,1.82,0,3.65-.31,5.48-.31,3.94,0,6,2,5.34,5.52-2.06,11.7,2.84,20.57,12,27.09,13.5,9.63,31.66,4.87,39.39-9.86.41-.78.76-1.58,1.16-2.35a4.91,4.91,0,0,1,4.84-2.84c2.24.06,4.47.05,6.71.05,3.27,0,4.23,1.18,3.32,4.27-3.88,13.18-12.19,22.43-25,27.63A40.88,40.88,0,0,1,509.12,727.46Z" transform="translate(-279 -640.13)"/><path class="cls-3" d="M652.48,696.12c-6-1.68-8.37.12-8.44,6.31q-.13,10.71,0,21.43c0,1.8-.44,2.26-2.24,2.21-4.86-.13-9.73-.09-14.59,0-1.37,0-1.71-.38-1.7-1.71.06-9.05-.11-18.11.06-27.15.27-14,11.31-22.93,25.45-20.77,1.11.17,1.46.56,1.46,1.65C652.46,684,652.48,690,652.48,696.12Z" transform="translate(-279 -640.13)"/><path class="cls-5" d="M454.73,700.07c0,7.31-.05,14.61,0,21.91,0,1.76-.28,2.51-2.3,2.44-4.78-.17-9.58-.11-14.36,0-1.45,0-1.88-.33-1.88-1.83q.09-22.74,0-45.49c0-1.13.14-1.67,1.52-1.65q7.65.14,15.31,0c1.44,0,1.69.51,1.68,1.78C454.71,684.83,454.73,692.45,454.73,700.07Z" transform="translate(-279 -640.13)"/><path class="cls-5" d="M445.61,671.42c-5.37,0-9.32-3.64-9.34-8.7a9.31,9.31,0,0,1,18.61-.1C454.92,667.65,451,671.38,445.61,671.42Z" transform="translate(-279 -640.13)"/></svg>